<svg xmlns="http://www.w3.org/2000/svg" width="470" height="470"><path d="M229.927 11.406c-.285.285-5.448.808-11.473 1.162-18.008 1.057-19.589 1.276-23.073 3.195-1.165.642-2.351.933-2.637.648-.831-.831-12.927 4.413-15.283 6.626-1.181 1.11-3.174 2.215-4.429 2.457-1.255.241-3.462 1.229-4.906 2.195-1.445.966-3.035 1.632-3.534 1.481-.5-.152-1.175.092-1.5.541-.326.449-2.842 1.934-5.592 3.301-2.75 1.367-5.872 3.274-6.939 4.237-1.066.963-2.302 1.751-2.747 1.751-1.56 0-20.467 17.892-23.375 22.12-3.815 5.546-9.114 10.857-10.008 10.03-.386-.357-.146.417.533 1.721.68 1.304.796 2.098.258 1.766-1.444-.892-6.331 6.575-14.346 21.924-3.489 6.681-6.16 15.976-7.311 25.439-.542 4.459-.963 6.882-2.14 12.308-.335 1.544-.771 4.919-.968 7.5-.198 2.581-.623 7.617-.946 11.192-1.144 12.674-1.226 15.517-.485 17 .412.825 1.001 3.975 1.308 7 1.599 15.75 1.916 18 2.539 18 .372 0 1.199 3.262 1.838 7.25s1.947 9.05 2.905 11.25c.959 2.2 1.9 5.125 2.091 6.5.192 1.375.967 3.85 1.724 5.5.756 1.65 1.9 4.327 2.541 5.948.92 2.326 1.359 2.642 2.081 1.5.685-1.082.92-.753.932 1.302.008 1.512.415 2.75.904 2.75.489 0 .826.563.75 1.25-.076.688.271 1.322.771 1.41 1.361.24 2.787 3.213 2.085 4.348-.337.546-.152.992.411.992s1.514 1.012 2.114 2.25c1.047 2.161 1.029 2.173-.465.309-.855-1.068-1.555-1.452-1.555-.855s2.04 3.246 4.533 5.885c2.494 2.641 4.298 5.409 4.011 6.157-.287.747-.142 1.124.321.838 1.131-.699 7.262 7.934 6.352 8.943-.395.437-.215.507.399.157 1.917-1.093 4.632 3.067 4.92 7.539.445 6.898 2.519 18.198 3.531 19.227 1.099 1.119 1.236 13.543.168 15.165-.404.614-1.75 1.432-2.992 1.82-2.271.709-6.273 7.643-10.414 18.048a267.214 267.214 0 01-4.274 10c-3.135 6.863-5.95 13.713-9.051 22.017-1.437 3.85-3.264 8.478-4.059 10.284-.795 1.806-1.458 4.056-1.474 5-.015.944-1.515 6.171-3.332 11.616-1.818 5.444-3.1 10.97-2.849 12.28.699 3.66 8.099 7.104 14.874 6.923 3.207-.086 4.087-.595 5.366-3.103.841-1.65 2.254-4.125 3.139-5.5.886-1.375 2.156-4.975 2.823-8 .667-3.025 2.795-10.429 4.729-16.454 1.934-6.025 3.602-11.542 3.708-12.26.105-.718.759-1.864 1.452-2.546 1.011-.994 1.131-.714.605 1.417-.373 1.509-.112 3.668.603 5 1.449 2.695 2.009 11.664.777 12.426-.455.281-.78 2.637-.721 5.234.065 2.888-.622 6.081-1.77 8.221-1.624 3.03-1.864 5.667-1.793 19.685.045 8.903-.292 15.956-.75 15.673-.458-.283-.832.439-.832 1.604s.45 1.84 1 1.5c.567-.351 1 .49 1 1.941 0 1.407.06 2.896.134 3.309.256 1.424 4.087 3.512 8.095 4.413 5.587 1.255 7.879-.498 10.187-7.791 1.866-5.893 1.937-7.86 1.288-35.621-.123-5.295.191-8.756.796-8.766.55-.008.325-.452-.5-.985-1-.646-1.083-.974-.25-.985.688-.008 1.25-.492 1.25-1.074 0-.582-.562-.741-1.25-.353-1 .564-1 .436 0-.641.688-.741 1.25-2.157 1.25-3.147 0-.99-.562-1.807-1.25-1.815-.872-.011-.915-.238-.142-.75.61-.404.987-1.522.839-2.485-.149-.962.065-1.75.475-1.75.409 0 .745-.675.745-1.5s-.379-1.5-.842-1.5c-.463 0-.303-.863.356-1.919.922-1.475.926-2.247.019-3.34-1.823-2.197-.469-22.846 1.605-24.491.868-.687 1.211-1.25.764-1.25-.448 0-.355-.563.206-1.25 1.346-1.649.529-21.535-1.209-29.452-.379-1.722-.174-5.041.455-7.376.881-3.273.861-4.774-.09-6.55-.678-1.267-1.54-2.114-1.915-1.882-.375.232-.683-.233-.683-1.034s.206-1.456.456-1.456c.251 0 4.873 3.351 10.27 7.447 9.032 6.854 17.941 12.346 17.941 11.06 0-.294 1.575.124 3.5.929 1.925.804 3.5 1.17 3.5.813s.54-.109 1.2.551c.66.66 2.91 1.2 5 1.2s3.8.393 3.8.873 4.357.954 9.682 1.053c5.325.099 10.162.479 10.75.844.587.364 4.893.968 9.568 1.342 4.675.374 11.838 1.173 15.918 1.777 6.751 1 7.696.923 10.5-.857 10.651-6.756 17.074-8.506 25.082-6.83 9.723 2.034 12.49 1.575 12.508-2.074.008-1.629 4.651-4.457 5.975-3.639.385.239 2.841-1.799 5.456-4.528 2.615-2.728 5.179-4.961 5.698-4.961.519 0 2.233-.953 3.808-2.118 2.809-2.077 5.534-1.82 4.777.451-.21.632.163 1.695.83 2.362 1.383 1.382 1.699 32.069.349 33.84-1.384 1.816-2.21 13.501-2.083 29.465.237 29.65.032 35.019-1.303 34.222-.558-.333-.388.166.378 1.11.765.944 1.107 2.002.758 2.35-.348.349-.132 1.238.48 1.976.84 1.012.776 1.346-.259 1.357-1.109.013-1.122.174-.067.843 1.338.849 1.261 4.659-.139 6.892-.431.688-.492 1.723-.135 2.3.357.578-.027 2.49-.854 4.25-.827 1.76-1.819 5.337-2.204 7.95-.385 2.613-1.099 4.75-1.587 4.75-.487 0-.886 2.198-.886 4.885 0 4.109.398 5.146 2.504 6.526 3.67 2.405 7.958 2.989 12.756 1.738 2.332-.608 5.14-1.228 6.24-1.377 3.497-.475 4.651-3.183 3.834-8.995-.408-2.902-.619-5.707-.469-6.233.15-.526.482-12.451.738-26.5.668-36.715.861-38.122 3.799-27.777.974 3.428 2.155 7.358 2.626 8.733.471 1.375 1.626 5.799 2.568 9.83 2.148 9.19 3.541 10.804 10.001 11.583 4.242.512 5.542.265 7.75-1.471 3.037-2.389 3.531-6.672 1.183-10.256-1.384-2.112-2.467-6.813-2.911-12.636-.107-1.405-.47-3.004-.806-3.552-.917-1.5-3.123-9.672-3.331-12.347-.101-1.292-.813-2.747-1.583-3.234-.769-.488-1.073-.893-.674-.902.399-.008.246-1.253-.339-2.765-.586-1.512-1.264-4.297-1.508-6.187-.244-1.89-.875-3.957-1.402-4.592-.527-.635-.663-1.451-.301-1.813.362-.362.058-.658-.675-.658-.733 0-1.032-.302-.663-.67.368-.369.033-1.642-.745-2.829-.778-1.188-1.664-3.731-1.969-5.652-.306-1.92-.96-4.585-1.454-5.92-.553-1.496-.517-3.266.095-4.608.777-1.706.541-2.754-1.088-4.824-1.802-2.292-2.013-3.605-1.576-9.821.352-5.001.2-6.725-.503-5.689-.817 1.205-.977 1.076-.845-.68.09-1.193.52-1.948.956-1.679.435.27.792-.238.792-1.128 0-1.004-.474-1.35-1.25-.912-.963.543-.981.414-.078-.563.644-.698.969-1.798.72-2.445-.248-.647.687-2.245 2.079-3.552 3.92-3.684 3.528-9.229-.971-13.728-1.925-1.925-3.5-3.809-3.5-4.188 0-.378 2.296-2.92 5.103-5.65 2.806-2.729 8.532-9.462 12.725-14.962 7.813-10.25 9.93-12.877 14.023-17.402 1.293-1.429 3.041-3.948 3.885-5.598.844-1.65 2.158-3.365 2.921-3.811.762-.447 1.141-1.207.842-1.69-.732-1.186 2.985-7.182 3.891-6.276.394.394.432-.023.086-.925-.565-1.474.872-5.506 2.424-6.798 1.352-1.126 3.05-5 2.192-5-.509 0-1.152.562-1.43 1.25-.31.77-.534.6-.583-.441-.043-.93.34-1.95.852-2.266.512-.317.721-1.729.466-3.139-.256-1.41-.112-2.347.319-2.081.431.265.823-1.161.871-3.17.048-2.009.382-6.128.742-9.153 1.761-14.811 1.979-18.67 1.919-34.04-.055-14.353-.977-26.998-2.913-39.96-.627-4.198-5.613-18.877-7.725-22.743a130.949 130.949 0 01-2.47-4.757c-1.237-2.564-24.724-26.5-26.004-26.5-.531 0-2.916-1.782-5.3-3.96C339.351 45.29 301.041 26 294.135 26c-1.174 0-2.135-.375-2.135-.833 0-.459-.562-.899-1.25-.979-2.993-.348-5.355-.877-6.75-1.511-1.467-.667-8.973-2.941-22-6.667-10.144-2.901-30.81-5.867-32.073-4.604m-14.713 19.36c-5.107.17-9.043.701-8.748 1.179.295.478-.358.634-1.452.348-1.261-.329-2.216.069-2.607 1.088-.339.884-1.08 1.321-1.646.971-.651-.402-.868.466-.59 2.361.372 2.533.151 2.923-1.422 2.511-1.024-.268-5.535 1.237-10.026 3.345-8.511 3.994-14.201 4.852-15.79 2.381-.768-1.194-1.085-1.214-1.795-.115-.474.735-1.244 1.264-1.711 1.176-.467-.087-1.172.662-1.568 1.665-.395 1.003-.75 1.246-.789.539-.053-.98-.552-1.027-2.098-.2-1.115.597-1.778 1.49-1.472 1.985.306.495-.469 1.397-1.722 2.005-2.182 1.059-2.196 1.04-.337-.45 1.068-.855 1.518-1.541 1-1.523-1.345.045-4.502 2.573-3.929 3.146.264.265-.643 1.536-2.016 2.826-1.373 1.289-2.496 1.972-2.496 1.517 0-.455-.9.211-2 1.479s-2 1.926-2 1.462c0-.464-.708.029-1.574 1.097-.866 1.067-1.244 1.266-.84.441.432-.882.359-1.157-.176-.667-.5.459-.917 1.134-.925 1.5-.034 1.473-1.68 3.164-2.554 2.624-.512-.316-.931-.079-.931.527 0 1.274-7.411 11.534-9.074 12.562-1.417.875-12.033 17.007-16.412 24.939-1.827 3.308-3.592 7.815-3.924 10.015-.594 3.936-.511 4.068 5.153 8.255a516.312 516.312 0 0111.599 8.891c9.421 7.475 41.073 38.326 46.019 44.854 2.501 3.3 7.236 8.901 10.523 12.446 4.871 5.254 5.797 6.781 5.008 8.256-1.868 3.49-6.196-.027-19.324-15.702-10.631-12.693-49.073-48.6-58.818-54.941L111 123.77v3.55c0 1.952-.457 4.752-1.016 6.222-1.331 3.5-2.451 35.458-1.243 35.458.502 0 .714 1.35.472 3s-.001 3 .535 3 .765 1.094.51 2.432c-.599 3.132 3.713 21.126 8.271 34.522 3.968 11.658 12.453 29.196 17.821 36.833 1.937 2.755 3.325 5.28 3.085 5.611-.239.331-.138.38.224.11.868-.649 8.2 7.361 9.374 10.242.505 1.238 1.604 2.25 2.442 2.25.839 0 1.525.45 1.525 1s.702 1 1.559 1 1.281.45.941 1c-.34.55.084 1 .941 1s1.559.461 1.559 1.025c0 .563 1.128 1.453 2.507 1.978 1.379.524 2.392 1.353 2.25 1.841-.141.488 2.931 3.391 6.828 6.45l7.086 5.563 5.805-2.929c3.193-1.61 7.05-2.928 8.571-2.928 2.268 0 2.672-.358 2.246-1.989-.286-1.094-.919-1.742-1.407-1.441-.895.554-1.281-1.514-.92-4.929.108-1.023-.177-1.631-.635-1.351-.457.28-.964-1.787-1.126-4.593-.163-2.806-.781-5.686-1.373-6.399-.793-.956-.716-1.302.296-1.313.826-.01.974-.308.372-.75-.55-.404-1.099-2.31-1.221-4.235-.122-1.925-.268-3.95-.325-4.5-.348-3.366 1.226-28.004 2.109-33 1.479-8.369 4.585-18.575 6.467-21.25.871-1.238 2.345-2.236 3.277-2.218 2.039.038 5.4 2.428 4.575 3.252-.837.838 6.308 2.049 8.078 1.37.812-.312 1.742-.136 2.067.39.706 1.142 10.473 1.301 10.473.171 0-.432 3.938-.84 8.75-.906 11.664-.161 23.73-1.084 29.25-2.237 2.475-.517 6.975-1.189 10-1.494 7.9-.794 33.05-7.313 34.99-9.069.903-.817 3.074-1.772 4.826-2.122 1.751-.35 3.184-1.057 3.184-1.571s.419-.675.931-.359c.512.317 1.23.092 1.595-.499s1.859-.829 3.319-.529c2.068.426 3.454-.2 6.269-2.83 1.987-1.857 3.921-4.603 4.298-6.104.376-1.5 3.946-6.838 7.932-11.861 3.986-5.024 10.091-13.409 13.568-18.634 7.158-10.759 11.84-16.013 16.511-18.529l3.216-1.732-1.348-5.119c-.742-2.816-1.508-6.411-1.703-7.988-.194-1.578-.969-3.259-1.721-3.735-.752-.477-1.037-.873-.633-.882.404-.008-.209-1.702-1.361-3.765a3596.888 3596.888 0 01-6.233-11.247c-3.536-6.403-4.69-7.677-7.908-8.73-2.072-.678-7.247-4.156-11.5-7.727C323.342 57.359 296.584 44.397 276 40.43c-1.375-.265-3.71-.964-5.19-1.552-1.479-.589-3.166-.776-3.75-.415-.583.36-1.06.13-1.06-.511 0-.643-.696-.899-1.552-.57-.854.327-1.312.206-1.018-.269.682-1.103-7.913-3.55-9.351-2.662-.593.367-1.079.205-1.079-.361 0-.565-.749-.74-1.664-.389-1.24.476-1.454.277-.84-.781.454-.781.494-1.124.089-.761-.405.362-2.052.281-3.66-.181-1.738-.498-2.925-.461-2.925.092 0 .511-.927.93-2.059.93-1.132 0-1.801-.417-1.487-.926.326-.527-1.196-.8-3.533-.634-2.259.161-3.552-.05-2.875-.469 1.231-.76-1.364-.788-18.832-.205m-2.401 1.917c.721.289 1.584.253 1.916-.079.332-.332-.258-.568-1.312-.525-1.165.048-1.402.285-.604.604m4 0c.721.289 1.584.253 1.916-.079.332-.332-.258-.568-1.312-.525-1.165.048-1.402.285-.604.604m80.967 74.067c-1.732 1.98-1.791 1.512 1.756 14.093 3.726 13.219 3.555 13.561-7.775 15.509-5.094.876-10.386 1.717-11.761 1.87-2.563.285-3.769 3.165-2.256 5.388.811 1.191 20.05.226 23.638-1.185 1.743-.686 1.849-.293 1.442 5.333-.242 3.341-1.088 6.856-1.882 7.813-1.742 2.101-1.896 7.45-.264 9.179 1.435 1.521 5.322 1.661 5.322.191 0-.582.402-.81.894-.507 1.828 1.13 4.401-7.868 4.504-15.754.116-8.855.094-8.829 8.602-10.58 3.025-.622 7.863-2.077 10.75-3.232 4.538-1.815 5.25-2.471 5.25-4.829 0-2.599-2.613-6.043-4.579-6.035-.506.002-2.496.977-4.421 2.168-1.925 1.19-4.85 2.321-6.5 2.513-1.65.192-3.134.744-3.298 1.226-.164.482-1.176.647-2.25.366-1.075-.281-1.952-.009-1.952.606s-.727 1.117-1.617 1.117c-1.124 0-1.457-.609-1.093-2 .287-1.1.062-2-.5-2-.563 0-.776-.945-.474-2.099.301-1.154.289-1.839-.028-1.522-.318.317-1.925-3.351-3.571-8.151-4.008-11.681-4.988-12.851-7.937-9.478m-86.698 7.097c-.544 1.016-.623 2.253-.176 2.75 1.248 1.388 3.094 12.12 3.094 17.99 0 4.967-.156 5.288-2.859 5.882-1.573.345-6.085.688-10.028.761-7.635.142-9.726 1.262-8.655 4.638.86 2.711 5.581 4.132 13.723 4.132h6.882l-.236 3.5c-.13 1.925-.554 3.5-.943 3.5-1.073 0-.464 2.596 1.032 4.399 1.896 2.285 3.822 1.987 6.612-1.023 1.947-2.102 2.386-3.543 2.202-7.232l-.23-4.606 5-1.315c6.416-1.686 10.144-2.294 14.5-2.365 5.041-.082 7-1.444 7-4.868 0-2.243-.698-3.3-2.95-4.464-3.972-2.054-7.45-1.922-15.438.585-3.698 1.161-6.912 1.922-7.143 1.691-.23-.23-.678-2.192-.995-4.36-.659-4.515-4.332-19.403-5.087-20.626-.926-1.497-4.304-.84-5.305 1.031m156.772 19.403c-1.669 1.787-3.777 4.375-4.685 5.75-.908 1.375-4.241 6.227-7.406 10.783-4.468 6.43-5.421 8.411-4.259 8.857 2.361.906 1.75 4.166-1.242 6.617-1.506 1.233-4.994 4.496-7.75 7.249-2.757 2.753-8.352 8.025-12.434 11.714l-7.422 6.709 1.422 4.286c2.455 7.4 1.808 28.8-1.37 45.285-1.484 7.7-2.511 14.508-2.281 15.13.466 1.26 9.572 4.646 9.574 3.559.003-1.421 5.257-6.676 6.355-6.356.629.184.828.018.442-.369-.387-.386-.017-1.388.822-2.227.839-.838 4.949-6.072 9.134-11.631 4.184-5.558 8.906-11.456 10.492-13.106 3.905-4.063 10.182-15.756 12.126-22.59 4.624-16.249 7.483-53.913 4.384-57.743-1.046-1.291-1.005-1.41.244-.712 1.22.682 1.267.587.25-.508-.725-.782-1.25-3.992-1.25-7.647 0-3.757-.426-6.3-1.056-6.3-.581 0-2.422 1.463-4.09 3.25m-58.659 63.441c-1.817.747-3.799 1.054-4.404.68-.629-.389-.818-.224-.441.386.409.662-.955 1.303-3.596 1.692-2.34.344-6.054 1.031-8.254 1.526-40.859 9.201-56.058 10.336-80.855 6.038l-9.855-1.708-.993 2.847c-.546 1.567-1.357 2.848-1.801 2.848-.445 0-.575.893-.29 1.985.286 1.092.176 2.779-.244 3.75-1.373 3.171-1.515 4.606-1.788 18.078-.296 14.55.494 23.677 3.044 35.187.913 4.125 1.557 8.23 1.43 9.122-.249 1.75 1.632 1.786 19.42.371 15.196-1.209 66.013-15.256 83.368-23.045 4.96-2.226 5.674-2.909 5.881-5.629.13-1.702.531-3.573.892-4.157.36-.583.749-1.984.864-3.112.114-1.127.512-4.075.885-6.55 2.474-16.443 2.747-32.17.685-39.412-.608-2.135-.822-2.184-3.948-.897m-13.027 13.024c-3.185 1.543-10.168 8.534-10.168 10.181 0 .489.662 1.144 1.47 1.454 1.426.547 14.53-9.698 14.53-11.36 0-1.615-2.793-1.747-5.832-.275m-86.807 9.788c-.891 2.321 4.884 7.961 12.097 11.814 6.683 3.57 8.87 3.935 9.328 1.556.21-1.093-1.589-2.694-5.486-4.883-3.19-1.792-7.375-4.472-9.3-5.956-5.287-4.076-5.95-4.329-6.639-2.531m-5.89 1.747c.388 1.238.668 3.293.622 4.569-.065 1.849.373 2.254 2.163 2 4.254-.605 2.944-8.819-1.408-8.819-1.7 0-1.952.412-1.377 2.25m86.886 19.515c-1.538.989 1.322 8.235 3.25 8.235 1.932 0 1.802-5.448-.178-7.429-1.812-1.811-1.596-1.755-3.072-.806M278 250.255c0 2.979 1.934 5.044 3.504 3.742.673-.559 2.365-.613 4.074-.13 3.431.969 5.422.481 5.422-1.329 0-1.473-3.746-3.096-9.25-4.008-3.444-.57-3.75-.429-3.75 1.725m34.643 13.245c-.825.825-1.982 1.5-2.572 1.5-.589 0-1.071.388-1.071.863 0 1.164-7.38 3.402-26.5 8.036-8.8 2.133-18.824 4.836-22.275 6.008-5.656 1.921-13 3.737-24.852 6.147-5.935 1.207-17.866 2.05-33.373 2.357-12.655.251-19 1.48-19 3.679 0 .76 4.92 2.363 16.46 5.361 6.988 1.816 7.866 1.886 7.047.56-.35-.566.051-.734.941-.393.854.328 1.552.998 1.552 1.489 0 .491 1.125.893 2.5.893s2.5-.388 2.5-.861c0-.474 1.166-.639 2.592-.366 1.893.362 2.23.725 1.25 1.346-.858.544.101.82 2.658.766 3.47-.073 3.669-.19 1.5-.885-2.327-.745-2.349-.808-.309-.9 1.205-.055 2.469.35 2.809.9.34.55 1.068 1 1.618 1s.722-.45.382-1c-.34-.55-.141-1 .441-1s1.095.788 1.138 1.75c.047 1.045.282 1.247.583.5.278-.687 1.93-1.205 3.671-1.15 3.006.094 3.04.138.667.855-4.551 1.375 12.671 1.62 21.85.311 4.757-.679 9.325-1.28 10.15-1.334.825-.055 2.175-.355 3-.666.825-.312 2.4-.733 3.5-.936 1.1-.203 3.575-1.13 5.5-2.059 1.925-.93 3.837-1.596 4.25-1.481.413.116.75-.315.75-.957 0-.641.279-.888.619-.547.341.34 1.273-.035 2.071-.834.799-.798 2.273-1.452 3.276-1.452 1.003 0 2.884-1.117 4.179-2.483 1.295-1.365 2.918-2.49 3.605-2.5.688-.009 1.25-.437 1.25-.95 0-.513.788-1.183 1.75-1.489.962-.306 2.978-1.696 4.48-3.089 1.501-1.393 2.851-2.491 3-2.44 1.075.366 5.934-2.312 6.4-3.528.319-.83.943-1.285 1.388-1.01.444.275 1.78-.741 2.969-2.256 1.189-1.515 1.85-2.08 1.47-1.255-.381.825.486.193 1.926-1.406 1.439-1.598 2.617-3.195 2.617-3.549 0-.702-5.963-3.045-7.75-3.045-.609 0-1.782.675-2.607 1.5m-104.14 4.496c-1.346 1.488-2.139 1.721-3.111.914-1.697-1.408-3.392-.318-3.392 2.181 0 2.182 3.38 3.884 6.231 3.138 2.258-.59 6.111-5.867 5.273-7.222-.981-1.589-3.036-1.182-5.001.989m2.31 30.687c.721.289 1.584.253 1.916-.079.332-.332-.258-.568-1.312-.525-1.165.048-1.402.285-.604.604m45.612 37.833c-2.287 4.82-3.249 5.154-6.072 2.109-2.675-2.885-4.353-3.37-4.353-1.26 0 1.356 3.571 6.536 5.37 7.79.548.382-.017 3.01-1.356 6.309-1.416 3.491-1.938 6.012-1.364 6.586 1.333 1.333 5.35-1.736 5.35-4.086 0-2.524 2.793-9.552 5.574-14.027 1.597-2.569 1.952-4.033 1.271-5.25-1.42-2.537-2.574-2.059-4.42 1.829m-57.925-.35c-9.281 4.808-9.742 7.415-2.028 11.454 4.765 2.495 5.286 3.051 4.03 4.306-.809.809-4.095 1.634-7.488 1.879-6.342.459-7.921 1.397-6.081 3.614 2.305 2.778 15.46-.573 19.002-4.841.716-.862 1.075-2.431.799-3.486-.354-1.355.126-2.088 1.632-2.492 3.791-1.017 3.932-.726 3.355 6.906-.504 6.661-.356 7.619 1.314 8.513 2.794 1.495 3.965-1.532 3.965-10.252v-7.365l3.405-1.231c3.661-1.324 5.411-3.921 3.211-4.765-1.266-.485-9.723 1.801-19.314 5.222-3.343 1.193-4.653 1.254-6.43.303-2.486-1.33-2.228-1.653 4.136-5.182 2.93-1.625 3.627-3.767 1.43-4.39-.516-.146-2.738.667-4.938 1.807m36.809 1.622c-1.83 1.164-10.41 18.24-9.723 19.351.359.58 2.765.711 5.892.32 4.019-.502 5.873-.275 7.734.944 1.346.882 2.749 1.302 3.118.934.992-.993.813-5.131-.252-5.789-.506-.313-1.236-3.602-1.621-7.309-.856-8.24-2.147-10.359-5.148-8.451m-1.607 12.545c-.317.826.071 1.75.861 2.053 1.612.618 1.825-.226.561-2.22-.688-1.085-.953-1.054-1.422.167m-15.72 28.862c-2.315 4.568-4.614 8.808-5.108 9.422-.56.696-.368 1.558.508 2.285 1.524 1.265 3.647-.22 5.64-3.943 1.149-2.147 3.288-1.73 6.654 1.295 1.197 1.075 2.68 1.644 3.296 1.264 1.089-.674.959-4.489-.257-7.518-.331-.825-1.256-3.525-2.055-6-2.223-6.889-3.874-6.281-8.678 3.195m27.686-6.069c-1.007.585-2.678.843-3.713.573-1.035-.271-2.403.136-3.041.904-.637.768-2.566 1.404-4.286 1.412-3.994.02-6.086 1.348-5.311 3.37.485 1.263 1.536 1.46 5.146.965l4.537-.622v3.554c0 4.808.863 6.718 3.035 6.718 1.603 0 1.754-.64 1.267-5.36-.541-5.248-.493-5.375 2.323-6.078 3.364-.84 6.375-3.304 6.375-5.217 0-1.596-3.741-1.725-6.332-.219m-11.52 23.195c-.87 1.048-.859 2.708.043 6.784.657 2.967 1.309 8.095 1.448 11.395.139 3.3.278 6.337.307 6.75.03.413.906.75 1.947.75 2.118 0 3.107-1.858 3.107-5.84 0-2.257.69-2.924 4.417-4.264 4.378-1.574 4.409-1.57 3.612.528-1.035 2.722-.532 7.265 1.011 9.124 1.737 2.093 4.711 1.785 6-.622.939-1.756.791-2.157-.965-2.617-2.526-.66-2.523-.238-.075-9.809 1.1-4.301 2-8.423 2-9.16 0-2.682-3.995-1.319-6.241 2.129-1.242 1.907-3.739 4.269-5.547 5.247-2.886 1.562-3.403 1.597-4.235.282-.52-.824-.96-2.623-.976-3.998-.036-2.928-2.025-7.185-3.601-7.704-.605-.2-1.618.262-2.252 1.025m31.152 4.092c-.44.778-2.15 1.565-3.8 1.75-2.277.256-3.081.911-3.337 2.717-.299 2.115-.045 2.307 2.274 1.725l2.611-.655-1.611 3.775c-2.983 6.989-3.437 8.397-3.437 10.649 0 5.179 5.556 7.462 12.964 5.328 1.945-.56 4.501-.956 5.68-.88 2.518.162 4.843-2.224 3.805-3.905-.505-.817-2.568-.957-6.836-.464-9.581 1.105-10.097 1.108-10.38.047-.147-.552 2.537-1.224 5.991-1.5 5.105-.408 6.324-.846 6.615-2.38.453-2.382-1.7-3.765-3.969-2.55-.956.511-3.097.93-4.756.93h-3.018l1.666-4.495c.916-2.472 2.132-4.444 2.702-4.381 5.177.565 9.725-.384 12.23-2.554 3.894-3.373 2.11-5.222-2.985-3.093-4.639 1.938-8.609 1.948-9.347.023-.724-1.886-2.023-1.923-3.062-.087M201 407v6h-3.5c-3.205 0-3.5-.247-3.5-2.935 0-4.022-1.757-8.313-3.207-7.829-.772.257-1.097 2.235-.92 5.581.239 4.498.028 5.183-1.599 5.183-2.17 0-4.274 1.821-4.274 3.7 0 .715.675 1.3 1.5 1.3s1.5-.45 1.5-1 .675-1 1.5-1c1.136 0 1.5 1.23 1.5 5.073 0 4.292.27 5.022 1.75 4.742 1.281-.243 1.833-1.484 2.06-4.63.31-4.296.313-4.298 4-3.992 3.64.303 3.694.371 3.994 5.038.224 3.49.869 5.127 2.459 6.241 3.188 2.233 3.839.673 2.615-6.275-.752-4.268-.774-6.617-.07-7.465.717-.864.599-1.822-.391-3.176-.779-1.066-1.417-3.337-1.417-5.047 0-2.963-1.479-5.509-3.2-5.509-.44 0-.8 2.7-.8 6m17.636-.538c-2.595 2.404-5.155 7.186-4.762 8.893.108.471-.317 1.473-.944 2.229-1.642 1.979 1.786 7.45 5.66 9.03 4.239 1.73 7.327.034 10.16-5.579 3.039-6.022 2.963-11.413-.205-14.58-3.123-3.124-6.534-3.121-9.909.007m1.371 7.712c-2.359 5.198-2.505 7.421-.536 8.177 1.998.766 4.485-1.922 5.291-5.722 1.046-4.929.863-6.077-1.027-6.441-1.26-.243-2.326.898-3.728 3.986" fill="undefined" fill-rule="evenodd"/></svg>